<svg xmlns="http://www.w3.org/2000/svg" width="24" height="24" viewBox="0 0 24 24"><defs><clipPath id="7bkia"><path fill="#fff" d="M12 24c6.627 0 12-5.373 12-12S18.627 0 12 0 0 5.373 0 12s5.373 12 12 12z"/></clipPath><linearGradient id="7bkib" x1="15.5" x2="7.5" y1="10.5" y2="15.5" gradientUnits="userSpaceOnUse"><stop offset="0" stop-color="#2084ff"/><stop offset="1" stop-color="#0052d4"/></linearGradient></defs><g><g><g><path fill="#fff" d="M12 24c6.627 0 12-5.373 12-12S18.627 0 12 0 0 5.373 0 12s5.373 12 12 12z"/><path fill="none" stroke="#dfe0ea" stroke-miterlimit="20" stroke-width="1.21" d="M12 24c6.627 0 12-5.373 12-12S18.627 0 12 0 0 5.373 0 12s5.373 12 12 12z" clip-path="url(&quot;#7bkia&quot;)"/></g><g><g><path fill="url(#7bkib)" d="M8.488 10.5l-.988.99 4 4.01 4-4.01-.988-.99-3.012 3.019z"/></g></g></g></g></svg>