<svg xmlns="http://www.w3.org/2000/svg" width="21" height="19" viewBox="0 0 21 19"><g><g><path fill="#fff" d="M13.387 14.25c.434 0 .787.355.787.75 0 .48-.353.834-.787.834-.387 0-.788-.355-.788-.834 0-.395.401-.75.788-.75zm-2.1.75c0 .48-.352.834-.786.834-.435 0-.788-.355-.788-.834 0-.395.353-.75.788-.75.434 0 .787.355.787.75zm-2.885 0c0 .48-.402.834-.787.834-.435 0-.788-.355-.788-.834 0-.395.353-.75.788-.75.385 0 .787.355.787.75zm4.985-3.388c.434 0 .787.388.787.792a.79.79 0 0 1-.787.791c-.387 0-.788-.354-.788-.791 0-.404.401-.792.788-.792zm-2.886 0c.434 0 .787.388.787.792a.79.79 0 0 1-.787.791.79.79 0 0 1-.788-.791c0-.404.353-.792.788-.792zm-2.886 0c.385 0 .787.388.787.792 0 .437-.402.791-.787.791a.79.79 0 0 1-.788-.791c0-.404.353-.792.788-.792zm-.906-1.298a6.465 6.465 0 0 0-3.555 5.784c0 .737.578 1.319 1.312 1.319h12.069c.734 0 1.312-.582 1.312-1.32a6.467 6.467 0 0 0-3.554-5.783L11.626 9h-2.25zM9.745 6c.15.178.255.385.255.599v.791h1V6.6c0-.286.17-.599.416-.695.245-.144.584-.144.793 0 .245.096.394.41.39.695v1.093L15 8.898a8.062 8.062 0 0 1 4.421 7.2c0 1.593-1.301 2.902-2.886 2.902H4.466c-1.584 0-2.886-1.309-2.886-2.902A8.06 8.06 0 0 1 6 8.898l2.402-1.206V6.6a.79.79 0 0 1 .774-.803.889.889 0 0 1 .569.204zM2.257 3.648h-.001a2 2 0 0 0-.652 1.823L1.749 6h.004c.126.538.653.914 1.247.856l1.28-.169h.012a1.12 1.12 0 0 0 .99-.848l.008-.033.345-1.064c.112-.452.375-.835.794-1.074.317-.19.571-.22.868-.276.312-.056.703-.097 1.039-.13a26.466 26.466 0 0 1 2.165-.094c.603 0 1.418.029 2.164.094.335.033.728.074 1.04.13.295.056.55.086.868.278h.001c.41.236.672.61.787 1.055l.35 1.082.007.032c.105.449.495.799.99.848l.011.001 1.281.17c.595.056 1.122-.319 1.248-.858h.004l.144-.528a2 2 0 0 0-.651-1.824C17.384 2.422 14 1.583 10.5 1.583c-3.501 0-6.883.84-8.244 2.065zm13.098 1.06l.018.066a2.007 2.007 0 0 0-.012-.05zm-9.728.065l.019-.065-.011.034a1.98 1.98 0 0 0-.008.031zM19.794 2.47a3.604 3.604 0 0 1 1.154 3.287l-.006.04-.163.578c-.313 1.32-1.573 2.194-2.914 2.058h-.01L16.53 8.26l.022.002a2.704 2.704 0 0 1-2.36-2.032l-.344-1.064-.008-.033c-.008-.033-.039-.07-.066-.133h-.346c-.238-.092-.557-.13-.9-.16a25.285 25.285 0 0 0-2.027-.088c-.552 0-1.343.027-2.029.087-.342.03-.66.069-.898.161h-.347c-.028.063-.058.098-.067.133l-.008.033-.344 1.064A2.702 2.702 0 0 1 4.45 8.262h-.001l-1.303.168-.011.001C1.795 8.567.534 7.692.22 6.373L.06 5.796l-.007-.04a3.604 3.604 0 0 1 1.154-3.289C3.182.69 6.774 0 10.501 0c3.726 0 7.318.69 9.293 2.469z"/></g></g></svg>