<svg xmlns="http://www.w3.org/2000/svg" width="30" height="30" viewBox="0 0 30 30"><g><g><path fill="#fff" d="M9.716 8.063c-.25 0-.656.093-1 .468-.343.374-1.312 1.278-1.312 3.12s1.342 3.623 1.53 3.873c.186.25 2.59 4.149 6.396 5.649 3.162 1.246 3.804 1 4.491.937.687-.11 2.179-.903 2.529-1.778.312-.874.313-1.627.22-1.781-.093-.156-.343-.25-.718-.437-.374-.187-2.215-1.114-2.558-1.216-.294-.124-.595-.187-.844.188s-.965 1.216-1.184 1.465c-.266.25-.436.284-.811.096-.375-.189-1.581-.585-3.012-1.86-1.113-.991-1.864-2.215-2.084-2.59-.217-.373-.02-.578.168-.764.168-.168.372-.433.56-.657.185-.219.25-.375.374-.624.125-.249.06-.468-.032-.656-.093-.187-.821-2.036-1.154-2.777-.275-.623-.577-.637-.844-.648-.218-.009-.431-.008-.715-.008zM15 3c3.22 0 6.232 1.25 8.495 3.513A11.913 11.913 0 0 1 27 15c0 6.594-5.377 12-12 12-2 0-4-.536-5.712-1.488L8.278 25l-1.117.225-2.954.697.721-2.678L5.253 22l-.62-1C3.584 19.153 3 17.081 3 15 3 8.374 8.411 3 15 3zm0-3C6.76 0 0 6.718 0 15c0 2.617.722 5.194 2 7.465L0 30l7.85-1.854A14.867 14.867 0 0 0 15 30c8.274 0 15-6.751 15-15 0-4-1.554-7.776-4.383-10.608A14.94 14.94 0 0 0 15 0z"/></g></g></svg>