<svg xmlns="http://www.w3.org/2000/svg" width="22" height="21" viewBox="0 0 22 21"><g><g><path fill="#fff" d="M13.405 16.936a.78.78 0 0 0 .788.772c.435 0 .807-.346.807-.772 0-.427-.372-.773-.807-.773a.78.78 0 0 0-.788.773zm-2.89 0a.78.78 0 0 0 .789.772.78.78 0 0 0 .788-.772.78.78 0 0 0-.788-.773.78.78 0 0 0-.788.773zm-2.888 0c0 .426.373.772.788.772a.78.78 0 0 0 .788-.772.78.78 0 0 0-.788-.773c-.415 0-.788.346-.788.773zm5.778-2.576a.78.78 0 0 0 .788.772c.435 0 .807-.346.807-.772 0-.427-.372-.773-.807-.773a.78.78 0 0 0-.788.773zm-2.89 0a.78.78 0 0 0 .789.772.78.78 0 0 0 .788-.772.78.78 0 0 0-.788-.773.78.78 0 0 0-.788.773zm-2.888 0c0 .426.373.772.788.772a.78.78 0 0 0 .788-.772.78.78 0 0 0-.788-.773c-.415 0-.788.346-.788.773zm-6.88-3.504a.838.838 0 0 1 .517.144c.456.339.98.574 1.54.694.285.05.518.247.61.516a.803.803 0 0 1-.171.79c-.243.189-.494.274-.773.203C1.69 13 1 12.713.333 12.26A.835.835 0 0 1 0 11.413a.86.86 0 0 1 .747-.557zM10 8.134a.709.709 0 0 1 .253.558v.773h2.101v-.773A.807.807 0 0 1 12.745 8a.874.874 0 0 1 .794 0 .807.807 0 0 1 .391.692V10l1.874.937c2.732 1.34 4.43 4.063 4.43 7.063 0 1.529-1.297 2.8-2.89 2.8H5.264c-1.594 0-2.89-1.271-2.89-2.8 0-3 1.697-5.723 4.43-7.063L8.676 10V8.692a.768.768 0 0 1 .776-.784.763.763 0 0 1 .547.226zm10.66-3.541c.89.761 1.34 1.874 1.099 2.975l-.013.05-.163.557C21.32 9.23 20.295 10 19.143 10h-.255l-1.363-.2c-1.056-.1-1.937-.8-2.178-1.8L15 6.472c0-.152-.11-.25-.21-.308-.3-.164-1.993-.306-3.486-.306S8.116 6 7.817 6.164a.43.43 0 0 0-.202.267L7.247 8C7 9 6.138 9.7 5.067 9.802L3.734 10C2.47 10.09 1.306 9.31 1 8.154l-.152-.587c-.201-1.101.21-2.213 1.099-2.974 1.713-1.467 5.21-2.344 9.357-2.344 4.146 0 7.644.877 9.356 2.344zM19.448.8a.8.8 0 0 1 .306.067c.662.276 1.302.606 1.896 1.004.236.129.35.421.35.699 0 .277-.194.522-.45.641a.803.803 0 0 1-.79-.064 9.479 9.479 0 0 0-1.623-.859.77.77 0 0 1-.474-.87.785.785 0 0 1 .785-.618z"/></g></g></svg>