<svg xmlns="http://www.w3.org/2000/svg" width="27" height="27" viewBox="0 0 27 27"><g><g><path fill="#fff" d="M3.227 18.099H7c.39 2.01 1.065 3.742 1.91 5.055a10.997 10.997 0 0 1-5.683-5.055zm14.47-6.378a.679.679 0 0 0-.375.057.68.68 0 0 0-.387.607v11.447c0 .284.181.536.445.633.264.097.561.02.741-.2l1.997-2.404 1.982 4.38a1.286 1.286 0 0 0 1.7.646l.637-.287a1.294 1.294 0 0 0 .646-1.714l-2.002-4.421h3.246c.284 0 .535-.175.673-.465.055-.24 0-.537-.234-.718L18 11.873c-.056-.084-.177-.135-.303-.152zM2.421 9.696h4.222a26.044 26.044 0 0 0-.201 3.232c0 1.124.077 2.197.206 3.232H2.416a11.144 11.144 0 0 1-.483-3.232c0-1.126.173-2.21.488-3.232zm14.437-6.994a11.016 11.016 0 0 1 5.676 5.055h-3.737C18.371 5.75 17.703 4 16.858 2.702zm-7.949 0C8.066 4 7.402 5.752 7 7.757H3.233A11.016 11.016 0 0 1 8.91 2.702zm3.975-.763c1.5 0 3.116 2.237 3.953 5.818h-7.9c.83-3.58 2.447-5.818 3.947-5.818zm0-1.939C5.778 0 0 5.798 0 12.928c0 7.13 5.778 12.927 12.884 12.927 1.21 0 2.383-.168 3.497-.485a1.989 1.989 0 0 1-.734-1.538v-2.385c-.812 1.553-1.81 2.47-2.763 2.47-1.501 0-3.119-2.237-3.95-5.818h6.713v-1.94h-7.06a24.306 24.306 0 0 1-.213-3.231c0-1.145.078-2.225.212-3.232h8.6c.033.249.064.498.09.756.11-.02.219-.033.328-.033.464 0 .915.169 1.27.466l.392.336a25.18 25.18 0 0 0-.146-1.525h4.227a10.932 10.932 0 0 1 .301 5.241l1.661 1.41c.297-1.093.458-2.236.458-3.42C25.767 5.799 20 0 12.884 0z"/></g></g></svg>