<svg xmlns="http://www.w3.org/2000/svg" width="20" height="23" viewBox="0 0 20 23"><defs><linearGradient id="51r6a" x1="20" x2="0" y1="0" y2="23" gradientUnits="userSpaceOnUse"><stop offset="0" stop-color="#2084ff"/><stop offset="1" stop-color="#0052d4"/></linearGradient></defs><g><g><g><path fill="url(#51r6a)" d="M10 12.65c-1.624 0-2.941-1.287-2.941-2.875S8.376 6.9 10 6.9c1.624 0 2.941 1.287 2.941 2.875S11.624 12.65 10 12.65zM10 0C4.486 0 0 4.385 0 9.775c0 2.32.852 4.573 2.408 6.353.177.197 4.368 4.872 5.768 6.157A2.667 2.667 0 0 0 10 23a2.67 2.67 0 0 0 1.824-.715c1.628-1.518 5.602-5.972 5.777-6.167A9.644 9.644 0 0 0 20 9.775C20 4.385 15.514 0 10 0z"/></g></g></g></svg>