<svg xmlns="http://www.w3.org/2000/svg" width="23" height="23" viewBox="0 0 23 23"><g><g><g><path fill="#fff" d="M11.5 7.263a4.224 4.224 0 0 1 4.237 4.237 4.224 4.224 0 0 1-4.237 4.237A4.224 4.224 0 0 1 7.263 11.5 4.224 4.224 0 0 1 11.5 7.263zm0-1.816c-3.332 0-6.053 2.721-6.053 6.053s2.721 6.053 6.053 6.053 6.053-2.721 6.053-6.053-2.721-6.053-6.053-6.053zm6.053-1.21a1.21 1.21 0 1 0-.001 2.42 1.21 1.21 0 0 0 0-2.42zM7 1.816h9A5.149 5.149 0 0 1 21.184 7v9A5.15 5.15 0 0 1 16 21.184H7A5.149 5.149 0 0 1 1.816 16V7A5.148 5.148 0 0 1 7 1.816zM7 0C3.127 0 0 3.127 0 7v9c0 3.873 3.127 7 7 7h9c3.873 0 7-3.127 7-7V7c0-3.873-3.128-7-7-7z"/></g></g></g></svg>